<svg width="307" height="48" viewBox="0 0 307 48" fill="none" xmlns="http://www.w3.org/2000/svg">
<g clip-path="url(#clip0_575_12)">
<path d="M79.8527 18.5084L77.3357 14.5408H74.5998L74.7088 13.8974H79.1959L79.8527 7.67816H75.4744V6.8202H80.7283L80.9472 6.07H75.5844L75.8033 4.35407H73.6142L73.3953 6.07H68.1424L67.9235 6.8202H73.2864L73.1764 7.67816H68.9092L68.2524 13.8974H72.5207L72.4107 14.5408H69.6748L66.2822 18.5084H69.127L71.5351 15.1843H72.3018L71.864 18.8307H74.0531L74.5998 15.1843H75.3655L77.3357 18.5084H79.8527ZM77.3357 10.3588H75.1466L75.3655 8.42941H77.6635L77.3357 10.3588ZM77.1168 13.2549H74.8187L75.0377 11.0023H77.3357L77.1168 13.2549ZM72.9575 10.3577H70.7683L70.9883 8.42836H73.0674L72.9575 10.3577ZM72.5196 13.2539H70.3305L70.6594 11.0012H72.8485L72.5207 13.2528L72.5196 13.2539ZM97.5824 7.14141L97.8013 6.49794H92.5474L92.7674 4.35303H90.2494L89.9216 6.49794H84.9966L84.6687 7.14141H97.5824ZM96.4878 17.9706L94.2987 14.1108H92.0018L93.863 17.9717H96.49L96.4878 17.9706ZM91.234 18.6151L91.7818 13.4673H95.5033L96.16 8.1061H86.0911L85.4344 13.4684H89.3748L88.827 17.8639H86.6379L86.7479 18.6151H91.234ZM86.0911 17.9717L89.0459 14.1108H86.5289L83.3553 17.9717H86.0911ZM93.3142 12.7171H87.8424L88.2802 8.8563H93.752L93.3142 12.7171ZM113.014 17.4359L113.452 13.4684L112.357 10.68L114.765 5.53221L114.874 4.88873H109.403L109.293 5.53221H107.761L106.886 6.71243H105.462L105.791 4.35303H103.821L103.493 6.71243H101.961L101.742 7.35591H103.383L103.164 9.60754H101.194L100.975 10.251H104.478L100.209 13.2539H101.851L101.304 18.4006H106.886L107.651 11.7525H104.805L106.557 10.251H108.417L108.636 9.60754H107.105L109.293 6.06896L107.87 18.8296H109.84L109.949 17.4359H113.014ZM110.716 10.251L111.263 5.63997H112.685L110.716 10.251ZM105.134 9.60754H105.024L105.353 7.35591H106.557L105.134 9.60754ZM111.263 16.6847H110.059L110.716 10.6789L111.701 13.3606L111.263 16.6847ZM105.462 14.5398H103.602L103.931 12.3949H105.791L105.462 14.5398ZM105.024 17.7572H103.273L103.602 15.291H105.353L105.024 17.7572ZM131.401 7.5704L131.62 6.81915H126.257L126.585 4.56752H123.959L123.74 6.81915H118.377L118.158 7.5704H131.401ZM129.212 17.4349L130.196 9.17856H125.819L125.928 7.99938H123.63L123.521 9.17856H119.362L118.377 17.5427H120.566L121.441 9.92875H123.411L122.426 18.8296H124.724L125.709 9.92875H127.898L127.022 16.6847H125.272L125.381 17.4349H129.212ZM147.051 18.6151L143.22 9.39305H142.235L142.673 8.64285H147.707L147.926 7.89161H142.783L143.22 4.45975H140.813L140.484 7.89161H135.669L135.45 8.64285H140.156L134.028 18.6141H136.872L141.36 10.8945L144.314 18.6151H147.051ZM162.701 8.64285L164.89 4.88873H162.482L160.513 8.64285H162.701ZM160.294 8.64285L159.308 4.88873H157.119L158.214 8.64285H160.294ZM156.791 8.64285L155.15 4.88873H152.851L154.493 8.64285H156.791ZM164.343 11.538L164.671 9.17856H152.304L151.975 11.538H154.493L154.602 9.82203H162.154L161.935 11.538H164.343ZM164.124 15.6122L164.343 14.8621H159.199L159.308 14.3253L163.03 12.6094L163.139 11.8592H153.618L153.289 12.6104H159.746L157.01 13.8974L156.9 14.8621H151.428L151.21 15.6122H156.791L156.572 17.7572H153.289L153.399 18.4006H158.761L159.089 15.6122H164.124ZM83.2453 31.3779L83.902 27.946H82.3696L81.7129 31.3779H83.2453ZM81.0561 31.3779L81.7129 27.946H80.8372L80.1816 31.3779H81.0561ZM79.5248 31.3779L79.9626 29.0185H70.9883L70.2216 31.3779H79.5248ZM83.6831 35.4522L83.902 34.5942H67.8146L67.4857 35.4522H74.5998L74.2709 37.8116L70.2216 44.1385H73.8331L77.1168 38.1328L77.5546 35.4522H83.6831ZM103.164 30.6277L103.602 27.4103H102.18L101.742 30.5199H103.164V30.6277ZM100.975 30.6277L101.413 27.517H100.647L100.099 30.6277H100.975ZM96.8167 33.7373L97.0357 32.7715H95.3933L92.8763 29.0185H89.4837L92.6574 33.7373H96.8167ZM95.5033 38.3483L95.7222 37.4904H94.0809L91.5629 33.6295H88.2802L91.4539 38.3483H95.5033ZM96.9257 43.8163L100.756 38.5628L102.945 31.3779H99.9904L97.9113 38.0261L94.1898 42.9594H90.2494L89.9216 43.8173H96.9267L96.9257 43.8163ZM114.218 44.0308L120.237 35.6667L121.77 30.0909H114.218L115.422 27.946H112.466L107.105 37.2759H110.168L113.671 30.9489H118.596L117.391 35.0242L112.248 34.5952L111.811 35.4532L116.736 35.8822L110.716 44.0308H114.218ZM128.008 44.1385L131.401 31.4846H132.604L132.823 30.6266H128.774L124.943 44.1385H128.008ZM138.186 43.8163L141.907 36.5246H138.952L135.778 42.9594H134.793L136.982 28.804H134.246L131.838 43.8163H138.186ZM155.588 42.7449H145.409L145.19 43.6028H158.324L159.856 30.7344H146.503L146.285 31.6991H156.9L155.588 42.7449ZM174.302 43.8163L178.133 38.5628L180.759 30.0909H177.695L175.287 38.0261L171.566 42.9594H167.626L167.298 43.8173L174.302 43.8163ZM172.551 36.2034L173.208 33.2005L166.75 29.6619L166.093 32.5571L172.551 36.2034ZM198.927 31.3779L199.803 29.0185H188.31L187.545 31.3779H198.927ZM201.006 35.4522L201.225 34.5942H185.137L184.809 35.4522H191.922L191.484 37.8116L187.545 44.1385H191.156L194.44 38.1328L194.878 35.4522H201.006ZM214.03 43.8163L217.86 38.5628L220.487 30.0909H217.422L215.014 38.0261L211.294 42.9594H207.245L207.026 43.8173L214.03 43.8163ZM212.17 36.2034L212.826 33.2005L206.478 29.6619L205.712 32.5571L212.17 36.2034ZM230.337 36.2034L230.556 35.3454H229.462L228.148 29.6619H225.302L226.835 36.2034H230.337ZM234.277 36.2034L232.744 29.6619H230.008L231.541 36.2034H234.277ZM233.292 44.1385L241.172 29.6619H235.371L235.043 30.6277H237.45L230.008 44.1385H233.292ZM258.245 44.353L259.229 35.6667H260.872L261.091 34.8087H259.339L260.105 28.804H261.2L261.418 27.946H253.21L252.882 28.804H254.085L253.32 34.8097H252.116L251.897 35.6677H253.21L252.773 39.0985L250.693 44.353H253.539L255.071 39.2052L255.509 35.6667H256.822L255.837 44.353H258.245ZM250.693 43.7096L251.897 32.7715H248.505L250.474 28.6973H252.663L252.882 27.8393H245.987L245.768 28.6973H248.067L244.564 35.131H245.878L244.892 43.7096H250.693ZM256.931 34.8087H255.728L256.494 28.804H257.588L256.931 34.8087ZM248.505 42.9594H247.41L248.505 33.5217H249.598L248.505 42.9594ZM280.243 35.0242L280.571 34.273H276.193L276.85 30.6266H274.223L273.458 35.0242H280.243ZM280.571 32.986L281.008 29.233H275.099L275.427 27.0881H272.363L272.144 29.233H266.452L265.906 32.986H268.642L268.97 29.9832H278.164L277.835 32.986H280.571ZM269.955 35.3454L273.458 30.6266H270.831L266.671 35.3454H269.955ZM280.243 44.0308L280.681 43.1728H277.616L278.71 36.8469H273.677L274.661 35.4522H271.815L270.612 36.8469H266.234L265.906 37.7048H269.955L264.373 44.2453H267.766L272.91 37.7048H275.756L274.552 44.0308H280.243ZM301.365 34.3797L296.44 28.0538H294.58L295.456 27.0881H292.282L285.277 34.3808H288.888L294.032 28.804L297.973 34.3808L301.365 34.3797ZM299.176 35.7744L299.505 34.9165H287.247L286.919 35.7744H299.176ZM298.957 43.924L297.316 39.6342H294.47L295.783 43.0661H289.436L292.719 38.0261H300.381L300.6 37.0614H285.606L285.277 38.0261H289.545L285.825 43.924H298.957Z" fill="white"/>
<path d="M29.4 5.51564L34.7747 0.275102C34.9543 0.0995597 35.1976 0.000976563 35.4513 0.000976562C35.705 0.000976562 35.9483 0.0995597 36.1279 0.275102L41.4775 5.54124C41.852 5.9071 41.852 6.50124 41.4775 6.8671L36.1029 12.1087C35.9234 12.2845 35.68 12.3833 35.4263 12.3833C35.1725 12.3833 34.9291 12.2845 34.7497 12.1087L29.4 6.84257C29.311 6.75549 29.2404 6.65207 29.1922 6.53822C29.1441 6.42438 29.1193 6.30234 29.1193 6.1791C29.1193 6.05586 29.1441 5.93383 29.1922 5.81998C29.2404 5.70614 29.311 5.60272 29.4 5.51564ZM22.117 12.6367L27.4927 7.3951C27.6723 7.21956 27.9156 7.12098 28.1693 7.12098C28.423 7.12098 28.6663 7.21956 28.8459 7.3951L34.1956 12.6623C34.569 13.0282 34.569 13.6223 34.1956 13.9882L28.8198 19.2298C28.6403 19.4056 28.397 19.5043 28.1432 19.5043C27.8894 19.5043 27.646 19.4056 27.4666 19.2298L22.117 13.9636C22.0279 13.8766 21.9573 13.7731 21.9092 13.6593C21.861 13.5454 21.8362 13.4234 21.8362 13.3002C21.8362 13.1769 21.861 13.0549 21.9092 12.941C21.9573 12.8272 22.0279 12.7238 22.117 12.6367Z" fill="white"/>
<path d="M29.3719 19.7654L34.7477 14.528C34.9273 14.3525 35.1706 14.2539 35.4243 14.2539C35.678 14.2539 35.9213 14.3525 36.1009 14.528L41.4505 19.7899C41.5395 19.8768 41.61 19.98 41.6582 20.0937C41.7063 20.2074 41.7311 20.3292 41.7311 20.4523C41.7311 20.5754 41.7063 20.6972 41.6582 20.8109C41.61 20.9246 41.5395 21.0278 41.4505 21.1147L36.0748 26.3627C35.8952 26.5382 35.6518 26.6368 35.3982 26.6368C35.1445 26.6368 34.9012 26.5382 34.7216 26.3627L29.3719 21.1019C29.1923 20.9238 29.0916 20.6835 29.0916 20.4331C29.0916 20.1827 29.1923 19.9424 29.3719 19.7643V19.7654Z" fill="white"/>
<path d="M14.8383 19.741L20.2086 14.4994C20.2974 14.4122 20.4029 14.343 20.519 14.2958C20.6351 14.2486 20.7595 14.2243 20.8852 14.2243C21.0109 14.2243 21.1354 14.2486 21.2515 14.2958C21.3676 14.343 21.473 14.4122 21.5618 14.4994L26.9071 19.7666C27.0863 19.9425 27.1869 20.1809 27.1869 20.4295C27.1869 20.678 27.0863 20.9165 26.9071 21.0924L21.5357 26.334C21.4469 26.421 21.3415 26.4901 21.2255 26.5372C21.1095 26.5843 20.9852 26.6085 20.8596 26.6085C20.7341 26.6085 20.6097 26.5843 20.4937 26.5372C20.3777 26.4901 20.2723 26.421 20.1836 26.334L14.8383 21.0679C14.7466 20.9823 14.6736 20.8794 14.6237 20.7653C14.5738 20.6513 14.5481 20.5285 14.5481 20.4044C14.5481 20.2803 14.5738 20.1576 14.6237 20.0435C14.6736 19.9295 14.7466 19.8265 14.8383 19.741ZM7.54433 26.8482L12.9179 21.6076C13.0973 21.4321 13.3405 21.3336 13.594 21.3336C13.8475 21.3336 14.0906 21.4321 14.27 21.6076L19.6175 26.8727C19.992 27.2386 19.992 27.8327 19.6175 28.1986L14.245 33.438C14.0655 33.6138 13.8222 33.7126 13.5684 33.7126C13.3146 33.7126 13.0712 33.6138 12.8918 33.438L7.54433 28.173C7.45403 28.0867 7.38227 27.9836 7.33327 27.8698C7.28428 27.7559 7.25903 27.6336 7.25903 27.51C7.25903 27.3865 7.28428 27.2642 7.33327 27.1503C7.38227 27.0364 7.45403 26.9344 7.54433 26.8482ZM7.56937 12.5954L12.944 7.35376C13.1237 7.17789 13.3672 7.0791 13.6212 7.0791C13.8751 7.0791 14.1187 7.17789 14.2983 7.35376L19.648 12.621C19.8271 12.7969 19.9277 13.0353 19.9277 13.2839C19.9277 13.5324 19.8271 13.7709 19.648 13.9468L14.2722 19.1895C14.0926 19.365 13.8493 19.4636 13.5956 19.4636C13.3419 19.4636 13.0986 19.365 12.919 19.1895L7.56937 13.9223C7.39021 13.7463 7.28959 13.5079 7.28959 13.2594C7.28959 13.0108 7.39021 12.7724 7.56937 12.5964V12.5954Z" fill="white"/>
<path d="M22.0539 41.1327L27.4286 35.8911C27.6081 35.7153 27.8515 35.6165 28.1052 35.6165C28.359 35.6165 28.6024 35.7153 28.7818 35.8911L34.1315 41.1583C34.506 41.5241 34.506 42.1183 34.1315 42.4841L28.7568 47.7257C28.6679 47.8129 28.5623 47.8821 28.4462 47.9293C28.33 47.9765 28.2054 48.0008 28.0796 48.0008C27.9539 48.0008 27.8293 47.9765 27.7131 47.9293C27.5969 47.8821 27.4914 47.8129 27.4025 47.7257L22.0539 42.4585C21.8748 42.2826 21.7742 42.0441 21.7742 41.7956C21.7742 41.547 21.8748 41.3086 22.0539 41.1327ZM43.9228 19.7972L49.2964 14.5577C49.4758 14.3822 49.7189 14.2837 49.9724 14.2837C50.2259 14.2837 50.4691 14.3822 50.6485 14.5577L55.996 19.8228C56.3705 20.1887 56.3705 20.7828 55.996 21.1476L50.6235 26.3871C50.444 26.5629 50.2006 26.6616 49.9469 26.6616C49.6931 26.6616 49.4497 26.5629 49.2703 26.3871L43.9228 21.1231C43.8325 21.0368 43.7607 20.9337 43.7117 20.8199C43.6627 20.706 43.6375 20.5837 43.6375 20.4601C43.6375 20.3366 43.6627 20.2142 43.7117 20.1004C43.7607 19.9865 43.8325 19.8834 43.9228 19.7972ZM22.079 26.8788L27.4548 21.6372C27.6342 21.4614 27.8776 21.3626 28.1313 21.3626C28.3851 21.3626 28.6285 21.4614 28.8079 21.6372L34.1576 26.9033C34.531 27.2703 34.531 27.8633 34.1576 28.2303L28.7818 33.4719C28.6024 33.6477 28.359 33.7464 28.1052 33.7464C27.8515 33.7464 27.6081 33.6477 27.4286 33.4719L22.079 28.2047C21.8996 28.0288 21.7988 27.7904 21.7988 27.5417C21.7988 27.2931 21.8996 27.0546 22.079 26.8788Z" fill="white"/>
<path d="M0.28958 19.7407L5.66099 14.4991C5.74976 14.4121 5.85515 14.343 5.97115 14.2959C6.08715 14.2488 6.21148 14.2246 6.33704 14.2246C6.46261 14.2246 6.58694 14.2488 6.70294 14.2959C6.81894 14.343 6.92433 14.4121 7.0131 14.4991L12.3584 19.7663C12.5375 19.9423 12.6382 20.1807 12.6382 20.4292C12.6382 20.6778 12.5375 20.9162 12.3584 21.0922L6.98915 26.3338C6.90036 26.4209 6.7949 26.4901 6.6788 26.5373C6.5627 26.5845 6.43824 26.6088 6.31255 26.6088C6.18686 26.6088 6.0624 26.5845 5.9463 26.5373C5.8302 26.4901 5.72474 26.4209 5.63595 26.3338L0.290669 21.0676C0.198972 20.982 0.12597 20.8791 0.0760893 20.7651C0.0262085 20.651 0.000488281 20.5282 0.000488281 20.4042C0.000488281 20.2801 0.0262085 20.1573 0.0760893 20.0432C0.12597 19.9292 0.197883 19.8263 0.28958 19.7407Z" fill="white"/>
</g>
<defs>
<clipPath id="clip0_575_12">
<rect width="307" height="48" fill="white"/>
</clipPath>
</defs>
</svg>
