<svg width="307" height="48" viewBox="0 0 307 48" fill="none" xmlns="http://www.w3.org/2000/svg">
<g clip-path="url(#clip0_262_379)">
<path d="M79.8527 18.5084L77.3357 14.5409H74.5998L74.7088 13.8974H79.1959L79.8527 7.6782H75.4744V6.82023H80.7283L80.9472 6.07003H75.5844L75.8033 4.3541H73.6142L73.3953 6.07003H68.1424L67.9235 6.82023H73.2864L73.1764 7.6782H68.9092L68.2524 13.8974H72.5207L72.4107 14.5409H69.6748L66.2822 18.5084H69.127L71.5351 15.1843H72.3018L71.864 18.8307H74.0531L74.5998 15.1843H75.3655L77.3357 18.5084H79.8527ZM77.3357 10.3588H75.1466L75.3655 8.42944H77.6635L77.3357 10.3588ZM77.1168 13.255H74.8187L75.0377 11.0023H77.3357L77.1168 13.255ZM72.9575 10.3578H70.7683L70.9883 8.42839H73.0674L72.9575 10.3578ZM72.5196 13.2539H70.3305L70.6594 11.0012H72.8485L72.5207 13.2529L72.5196 13.2539ZM97.5824 7.14144L97.8013 6.49797H92.5474L92.7674 4.35306H90.2494L89.9216 6.49797H84.9966L84.6687 7.14144H97.5824ZM96.4878 17.9706L94.2987 14.1108H92.0018L93.863 17.9717H96.49L96.4878 17.9706ZM91.234 18.6152L91.7818 13.4674H95.5033L96.16 8.10613H86.0911L85.4344 13.4684H89.3748L88.827 17.8639H86.6379L86.7479 18.6152H91.234ZM86.0911 17.9717L89.0459 14.1108H86.5289L83.3553 17.9717H86.0911ZM93.3142 12.7172H87.8424L88.2802 8.85633H93.752L93.3142 12.7172ZM113.014 17.436L113.452 13.4684L112.357 10.68L114.765 5.53224L114.874 4.88876H109.403L109.293 5.53224H107.761L106.886 6.71246H105.462L105.791 4.35306H103.821L103.493 6.71246H101.961L101.742 7.35594H103.383L103.164 9.60757H101.194L100.975 10.251H104.478L100.209 13.2539H101.851L101.304 18.4007H106.886L107.651 11.7525H104.805L106.557 10.251H108.417L108.636 9.60757H107.105L109.293 6.06899L107.87 18.8296H109.84L109.949 17.436H113.014ZM110.716 10.251L111.263 5.64001H112.685L110.716 10.251ZM105.134 9.60757H105.024L105.353 7.35594H106.557L105.134 9.60757ZM111.263 16.6847H110.059L110.716 10.679L111.701 13.3606L111.263 16.6847ZM105.462 14.5398H103.602L103.931 12.3949H105.791L105.462 14.5398ZM105.024 17.7572H103.273L103.602 15.2911H105.353L105.024 17.7572ZM131.401 7.57043L131.62 6.81918H126.257L126.585 4.56755H123.959L123.74 6.81918H118.377L118.158 7.57043H131.401ZM129.212 17.4349L130.196 9.17859H125.819L125.928 7.99941H123.63L123.521 9.17859H119.362L118.377 17.5427H120.566L121.441 9.92878H123.411L122.426 18.8296H124.724L125.709 9.92878H127.898L127.022 16.6847H125.272L125.381 17.4349H129.212ZM147.051 18.6152L143.22 9.39308H142.235L142.673 8.64288H147.707L147.926 7.89164H142.783L143.22 4.45978H140.813L140.484 7.89164H135.669L135.45 8.64288H140.156L134.028 18.6141H136.872L141.36 10.8945L144.314 18.6152H147.051ZM162.701 8.64288L164.89 4.88876H162.482L160.513 8.64288H162.701ZM160.294 8.64288L159.308 4.88876H157.119L158.214 8.64288H160.294ZM156.791 8.64288L155.15 4.88876H152.851L154.493 8.64288H156.791ZM164.343 11.538L164.671 9.17859H152.304L151.975 11.538H154.493L154.602 9.82206H162.154L161.935 11.538H164.343ZM164.124 15.6123L164.343 14.8621H159.199L159.308 14.3253L163.03 12.6094L163.139 11.8592H153.618L153.289 12.6104H159.746L157.01 13.8974L156.9 14.8621H151.428L151.21 15.6123H156.791L156.572 17.7572H153.289L153.399 18.4007H158.761L159.089 15.6123H164.124ZM83.2453 31.3779L83.902 27.946H82.3696L81.7129 31.3779H83.2453ZM81.0561 31.3779L81.7129 27.946H80.8372L80.1816 31.3779H81.0561ZM79.5248 31.3779L79.9626 29.0185H70.9883L70.2216 31.3779H79.5248ZM83.6831 35.4522L83.902 34.5942H67.8146L67.4857 35.4522H74.5998L74.2709 37.8116L70.2216 44.1386H73.8331L77.1168 38.1328L77.5546 35.4522H83.6831ZM103.164 30.6277L103.602 27.4103H102.18L101.742 30.5199H103.164V30.6277ZM100.975 30.6277L101.413 27.5171H100.647L100.099 30.6277H100.975ZM96.8167 33.7373L97.0357 32.7716H95.3933L92.8763 29.0185H89.4837L92.6574 33.7373H96.8167ZM95.5033 38.3483L95.7222 37.4904H94.0809L91.5629 33.6295H88.2802L91.4539 38.3483H95.5033ZM96.9257 43.8163L100.756 38.5628L102.945 31.3779H99.9904L97.9113 38.0261L94.1898 42.9594H90.2494L89.9216 43.8174H96.9267L96.9257 43.8163ZM114.218 44.0308L120.237 35.6667L121.77 30.091H114.218L115.422 27.946H112.466L107.105 37.2759H110.168L113.671 30.9489H118.596L117.391 35.0243L112.248 34.5953L111.811 35.4532L116.736 35.8822L110.716 44.0308H114.218ZM128.008 44.1386L131.401 31.4846H132.604L132.823 30.6267H128.774L124.943 44.1386H128.008ZM138.186 43.8163L141.907 36.5247H138.951L135.778 42.9594H134.793L136.982 28.804H134.246L131.838 43.8163H138.186ZM155.588 42.7449H145.409L145.19 43.6029H158.324L159.856 30.7344H146.503L146.285 31.6991H156.9L155.588 42.7449ZM174.302 43.8163L178.133 38.5628L180.759 30.091H177.695L175.287 38.0261L171.566 42.9594H167.626L167.298 43.8174L174.302 43.8163ZM172.551 36.2034L173.208 33.2006L166.75 29.662L166.093 32.5571L172.551 36.2034ZM198.927 31.3779L199.803 29.0185H188.31L187.545 31.3779H198.927ZM201.006 35.4522L201.225 34.5942H185.137L184.809 35.4522H191.922L191.484 37.8116L187.545 44.1386H191.156L194.44 38.1328L194.878 35.4522H201.006ZM214.03 43.8163L217.86 38.5628L220.487 30.091H217.422L215.014 38.0261L211.294 42.9594H207.245L207.026 43.8174L214.03 43.8163ZM212.17 36.2034L212.826 33.2006L206.478 29.662L205.712 32.5571L212.17 36.2034ZM230.337 36.2034L230.556 35.3455H229.462L228.148 29.662H225.302L226.835 36.2034H230.337ZM234.277 36.2034L232.744 29.662H230.008L231.541 36.2034H234.277ZM233.292 44.1386L241.172 29.662H235.371L235.043 30.6277H237.45L230.008 44.1386H233.292ZM258.245 44.3531L259.229 35.6667H260.872L261.091 34.8087H259.339L260.105 28.804H261.2L261.419 27.946H253.21L252.882 28.804H254.085L253.32 34.8098H252.116L251.897 35.6677H253.21L252.773 39.0985L250.693 44.3531H253.539L255.071 39.2053L255.509 35.6667H256.822L255.837 44.3531H258.245ZM250.693 43.7096L251.897 32.7716H248.505L250.474 28.6973H252.663L252.882 27.8393H245.987L245.768 28.6973H248.067L244.564 35.131H245.878L244.892 43.7096H250.693ZM256.931 34.8087H255.728L256.493 28.804H257.588L256.931 34.8087ZM248.505 42.9594H247.41L248.505 33.5218H249.598L248.505 42.9594ZM280.243 35.0243L280.571 34.273H276.193L276.85 30.6267H274.223L273.458 35.0243H280.243ZM280.571 32.9861L281.008 29.233H275.099L275.427 27.0881H272.363L272.144 29.233H266.452L265.906 32.9861H268.642L268.97 29.9832H278.164L277.835 32.9861H280.571ZM269.955 35.3455L273.458 30.6267H270.831L266.671 35.3455H269.955ZM280.243 44.0308L280.681 43.1728H277.616L278.71 36.8469H273.677L274.661 35.4522H271.815L270.612 36.8469H266.234L265.906 37.7049H269.955L264.373 44.2453H267.766L272.91 37.7049H275.756L274.552 44.0308H280.243ZM301.365 34.3797L296.44 28.0538H294.58L295.456 27.0881H292.282L285.277 34.3808H288.888L294.032 28.804L297.973 34.3808L301.365 34.3797ZM299.176 35.7745L299.505 34.9165H287.247L286.919 35.7745H299.176ZM298.957 43.9241L297.316 39.6343H294.47L295.783 43.0661H289.436L292.719 38.0261H300.381L300.6 37.0614H285.606L285.277 38.0261H289.545L285.825 43.9241H298.957Z" fill="black"/>
<path d="M29.4 5.51573L34.7747 0.275194C34.9543 0.0996513 35.1976 0.00106812 35.4513 0.00106812C35.705 0.00106812 35.9483 0.0996513 36.1279 0.275194L41.4775 5.54133C41.852 5.90719 41.852 6.50133 41.4775 6.86719L36.1029 12.1088C35.9234 12.2846 35.68 12.3834 35.4263 12.3834C35.1725 12.3834 34.9291 12.2846 34.7497 12.1088L29.4 6.84266C29.311 6.75558 29.2404 6.65216 29.1922 6.53831C29.1441 6.42447 29.1193 6.30244 29.1193 6.17919C29.1193 6.05595 29.1441 5.93392 29.1922 5.82007C29.2404 5.70623 29.311 5.60281 29.4 5.51573ZM22.117 12.6368L27.4927 7.39519C27.6723 7.21965 27.9156 7.12107 28.1693 7.12107C28.423 7.12107 28.6663 7.21965 28.8459 7.39519L34.1955 12.6624C34.569 13.0283 34.569 13.6224 34.1955 13.9883L28.8198 19.2299C28.6403 19.4057 28.397 19.5044 28.1432 19.5044C27.8894 19.5044 27.646 19.4057 27.4666 19.2299L22.117 13.9637C22.0279 13.8766 21.9573 13.7732 21.9092 13.6594C21.861 13.5455 21.8362 13.4235 21.8362 13.3003C21.8362 13.177 21.861 13.055 21.9092 12.9411C21.9573 12.8273 22.0279 12.7239 22.117 12.6368Z" fill="#05C0FF"/>
<path d="M29.3719 19.7653L34.7477 14.528C34.9273 14.3525 35.1706 14.2539 35.4243 14.2539C35.678 14.2539 35.9213 14.3525 36.1009 14.528L41.4505 19.7899C41.5395 19.8768 41.61 19.98 41.6582 20.0937C41.7063 20.2073 41.7311 20.3292 41.7311 20.4523C41.7311 20.5753 41.7063 20.6972 41.6582 20.8109C41.61 20.9245 41.5395 21.0278 41.4505 21.1147L36.0748 26.3627C35.8952 26.5382 35.6518 26.6368 35.3982 26.6368C35.1445 26.6368 34.9012 26.5382 34.7216 26.3627L29.3719 21.1019C29.1923 20.9238 29.0916 20.6835 29.0916 20.4331C29.0916 20.1827 29.1923 19.9424 29.3719 19.7643V19.7653Z" fill="#0070D9"/>
<path d="M14.8383 19.7408L20.2086 14.4992C20.2974 14.412 20.4029 14.3429 20.519 14.2957C20.6351 14.2485 20.7595 14.2242 20.8852 14.2242C21.0109 14.2242 21.1354 14.2485 21.2515 14.2957C21.3676 14.3429 21.473 14.412 21.5618 14.4992L26.9071 19.7664C27.0863 19.9424 27.1869 20.1808 27.1869 20.4293C27.1869 20.6779 27.0863 20.9163 26.9071 21.0923L21.5357 26.3339C21.4469 26.4209 21.3415 26.4899 21.2255 26.537C21.1095 26.5841 20.9852 26.6083 20.8596 26.6083C20.7341 26.6083 20.6097 26.5841 20.4937 26.537C20.3777 26.4899 20.2723 26.4209 20.1836 26.3339L14.8383 21.0677C14.7466 20.9822 14.6736 20.8792 14.6237 20.7652C14.5738 20.6511 14.5481 20.5284 14.5481 20.4043C14.5481 20.2802 14.5738 20.1574 14.6237 20.0434C14.6736 19.9293 14.7466 19.8264 14.8383 19.7408ZM7.54433 26.848L12.9179 21.6075C13.0973 21.432 13.3405 21.3334 13.594 21.3334C13.8475 21.3334 14.0906 21.432 14.27 21.6075L19.6175 26.8725C19.992 27.2384 19.992 27.8325 19.6175 28.1984L14.245 33.4379C14.0655 33.6137 13.8222 33.7124 13.5684 33.7124C13.3146 33.7124 13.0712 33.6137 12.8918 33.4379L7.54433 28.1728C7.45403 28.0865 7.38227 27.9835 7.33327 27.8696C7.28428 27.7557 7.25903 27.6334 7.25903 27.5099C7.25903 27.3863 7.28428 27.264 7.33327 27.1501C7.38227 27.0363 7.45403 26.9343 7.54433 26.848ZM7.56937 12.5952L12.944 7.35361C13.1237 7.17774 13.3672 7.07895 13.6212 7.07895C13.8751 7.07895 14.1187 7.17774 14.2983 7.35361L19.648 12.6208C19.8271 12.7968 19.9277 13.0352 19.9277 13.2837C19.9277 13.5323 19.8271 13.7707 19.648 13.9467L14.2722 19.1893C14.0926 19.3649 13.8493 19.4635 13.5956 19.4635C13.3419 19.4635 13.0986 19.3649 12.919 19.1893L7.56937 13.9221C7.39021 13.7462 7.28959 13.5078 7.28959 13.2592C7.28959 13.0107 7.39021 12.7722 7.56937 12.5963V12.5952Z" fill="#05C0FF"/>
<path d="M22.0539 41.1328L27.4286 35.8912C27.6081 35.7154 27.8515 35.6166 28.1052 35.6166C28.359 35.6166 28.6024 35.7154 28.7818 35.8912L34.1315 41.1584C34.506 41.5243 34.506 42.1184 34.1315 42.4843L28.7568 47.7259C28.6679 47.8131 28.5623 47.8823 28.4462 47.9295C28.33 47.9767 28.2054 48.001 28.0796 48.001C27.9539 48.001 27.8293 47.9767 27.7131 47.9295C27.5969 47.8823 27.4914 47.8131 27.4025 47.7259L22.0539 42.4587C21.8748 42.2827 21.7742 42.0443 21.7742 41.7957C21.7742 41.5472 21.8748 41.3088 22.0539 41.1328ZM43.9228 19.7973L49.2964 14.5579C49.4758 14.3824 49.7189 14.2838 49.9724 14.2838C50.2259 14.2838 50.4691 14.3824 50.6485 14.5579L55.996 19.8229C56.3704 20.1888 56.3704 20.7829 55.996 21.1477L50.6235 26.3872C50.444 26.563 50.2006 26.6618 49.9469 26.6618C49.6931 26.6618 49.4497 26.563 49.2703 26.3872L43.9228 21.1232C43.8325 21.037 43.7607 20.9339 43.7117 20.82C43.6627 20.7062 43.6375 20.5838 43.6375 20.4603C43.6375 20.3367 43.6627 20.2144 43.7117 20.1005C43.7607 19.9867 43.8325 19.8836 43.9228 19.7973ZM22.079 26.8789L27.4548 21.6373C27.6342 21.4615 27.8776 21.3628 28.1313 21.3628C28.3851 21.3628 28.6285 21.4615 28.8079 21.6373L34.1576 26.9035C34.531 27.2704 34.531 27.8635 34.1576 28.2304L28.7818 33.472C28.6024 33.6478 28.359 33.7466 28.1052 33.7466C27.8515 33.7466 27.6081 33.6478 27.4286 33.472L22.079 28.2048C21.8996 28.029 21.7988 27.7905 21.7988 27.5419C21.7988 27.2932 21.8996 27.0548 22.079 26.8789Z" fill="#0070D9"/>
<path d="M0.28958 19.7408L5.66099 14.4992C5.74975 14.4122 5.85515 14.3432 5.97115 14.2961C6.08715 14.249 6.21148 14.2247 6.33704 14.2247C6.46261 14.2247 6.58694 14.249 6.70294 14.2961C6.81894 14.3432 6.92433 14.4122 7.0131 14.4992L12.3584 19.7664C12.5375 19.9424 12.6382 20.1808 12.6382 20.4293C12.6382 20.6779 12.5375 20.9163 12.3584 21.0923L6.98915 26.3339C6.90036 26.4211 6.7949 26.4902 6.6788 26.5374C6.5627 26.5846 6.43824 26.6089 6.31255 26.6089C6.18686 26.6089 6.0624 26.5846 5.9463 26.5374C5.8302 26.4902 5.72474 26.4211 5.63595 26.3339L0.290669 21.0677C0.198972 20.9822 0.12597 20.8792 0.0760893 20.7652C0.0262085 20.6511 0.000488281 20.5284 0.000488281 20.4043C0.000488281 20.2802 0.0262085 20.1574 0.0760893 20.0434C0.12597 19.9293 0.197883 19.8264 0.28958 19.7408Z" fill="#05C0FF"/>
</g>
<defs>
<clipPath id="clip0_262_379">
<rect width="307" height="48" fill="white"/>
</clipPath>
</defs>
</svg>
